<?xml version="1.0" encoding="UTF-8"?><svg id="Layer_1" xmlns="http://www.w3.org/2000/svg" viewBox="0 0 245.2 249.01"><defs><style>.cls-1{fill:none;}.cls-1,.cls-2{stroke:#323031;stroke-miterlimit:10;stroke-width:2px;}.cls-3{fill:#323031;}.cls-2{fill:#fff;}</style></defs><polygon class="cls-1" points="135.82 110.07 242.82 1 2.38 1 106.56 107.2 106.56 141.81 2.38 248.01 242.82 248.01 135.82 138.94 135.82 110.07"/><polygon class="cls-2" points="167.49 163.49 167.49 138.12 154.52 125.69 167.49 113.25 167.49 87.88 129.25 87.88 129.25 163.49 167.49 163.49"/><polygon class="cls-2" points="77.71 163.49 77.71 138.12 90.67 125.69 77.71 113.25 77.71 87.88 115.95 87.88 115.95 163.49 77.71 163.49"/><circle class="cls-3" cx="105.06" cy="180.75" r="5.49"/><line class="cls-1" x1="106.7" y1="175.59" x2="122.5" y2="125.84"/><line class="cls-1" x1="89.39" y1="125.26" x2="155.39" y2="125.26"/></svg>